<?xml version="1.0" encoding="UTF-8"?>
<svg id="a" data-name="Layer 1" xmlns="http://www.w3.org/2000/svg" viewBox="0 0 892.99 216.91">
  <defs>
    <style>
      .b {
        fill: #d8d8dd;
      }
    </style>
  </defs>
  <path class="b" d="M180.85,31.88c9.33-3.15,16.71,2.28,23.73,6.48,16.57,9.92,24.54,25.31,23.17,44.51-1.27,17.92-8.84,32.55-26.06,40.63-2.33,1.09-4.58,2.37-7.8,4.04,3.06,2.07,5.29,3.84,7.74,5.2,20.44,11.35,25.56,42.04,12.21,60.22-8.56,11.65-20.65,18.08-34.57,20.73-8.81,1.68-17.85,2.87-26.8,3-27.48.38-54.97.15-82.45.13-5.35,0-6.32-1.04-5.09-5.61.01-.37-.02-.32.34-.49.46-1.1.56-2.02.65-2.93-.01.02-.04.06.26.34,2.11-2.2,4.09-4.58,5.67-7.2,1.57-2.6,2.74-5.43,4.07-8.14-.01.02-.05.06.31.33.81-.93,1.26-2.14,1.7-3.33-.01.02-.05.06.31.33.81-.94,1.26-2.14,1.69-3.33-.01.02-.05.06.25.34.8-.59,1.3-1.45,1.78-2.3-.02.02-.04.06.35-.16.47-1.28.54-2.33.69-3.46.08-.07.37-.37.73,0,1.86-.21,3.34-1.23,4.87-1.3,9.92-.47,19.85-.89,29.78-1.03,11.33-.17,22.69.5,33.98-.21,9.27-.58,15.74-4.72,18.04-13.69,1.93-7.5-.56-15.76-7.9-19.78-4.39-2.4-9.73-3.83-14.74-4.17-9.45-.64-18.98-.12-28.48-.24-1.68-.02-4.43-.41-4.77-1.34-.56-1.52-.05-3.93.88-5.42,5.38-8.54,10.89-17,16.69-25.26,1.08-1.53,3.63-2.59,5.62-2.82,7.81-.93,15.75-.99,23.5-2.24,7.73-1.25,14.93-9.02,15.71-15.74.76-6.59-1.81-15.44-10.55-19.23-3.74-1.62-4.79-4.28-4.43-7.93-.02.02-.06.06.3.33.81-.93,1.26-2.14,1.7-3.33-.02.02-.06.06.3.33.81-.93,1.26-2.14,1.7-3.33-.01.02-.05.06.31.33.81-.94,1.26-2.14,1.69-3.33-.01.02-.05.06.31.33.81-.94,1.26-2.14,1.69-3.33-.01.02-.05.06.26.34,2.36-2.7,4.55-5.62,6.43-8.72,1.04-1.72,1.57-3.75,2.31-5.62-.02.02-.06.05.3.33.81-.93,1.26-2.14,1.69-3.33-.02.03-.07.08-.07.08Z"/>
  <path class="b" d="M294.93,97.83c18.72-.2,35.2,4.76,48.23,17.92,8.96,9.05,14.29,20.21,14.72,33.23.21,6.47.04,12.95.04,19.69h-77.37c2.13,6.91,9.76,11.79,18.51,12.17,8.63.38,16.43-1.7,23.53-6.86,1.13-.82,4.54-.2,5.69.96,7.35,7.39,14.37,15.11,21.77,23.02-6.98,8.48-16.4,13.22-26.8,15.77-19.87,4.87-39.79,4.3-58.51-4.17-17.54-7.94-29.46-21.32-32.85-41.09-2.67-15.59-.83-30.44,8.12-43.72,10.16-15.08,24.79-23.32,42.66-25.88,3.89-.56,7.85-.7,12.26-1.03M298.97,130.84c-12.12-.02-18.85,4.63-19.77,13.76h34.28c-2.32-7.08-6.48-11.91-14.51-13.76Z"/>
  <path class="b" d="M520.71,200.13c-15.41-13.9-21.07-31.4-18.55-50.99,3.15-24.54,17.61-40.94,41.21-47.86,25.88-7.59,50.52-4.79,70.88,14.65,9.19,8.78,14.25,20.22,14.63,33.26.18,6.34.03,12.68.03,19.37h-77.98c2.36,5.04,5.49,8.55,9.91,10.12,11.52,4.09,22.53,2.81,32.41-4.75,2.75-2.1,4.47-.94,6.33,1.07,7,7.53,14.03,15.03,21.3,22.8-4.8,7.03-12.31,10.76-19.96,13.88-10.12,4.12-21.04,5.28-31.79,4.98-17.56-.49-34.18-4.77-48.43-16.53M583,141.26c-3.96-8.34-11.55-12.22-20.19-10.33-6.86,1.5-12.33,7.51-12.41,13.77h33.88c-.02-.4.03-.74-.07-1.02-.21-.62-.5-1.21-1.22-2.42Z"/>
  <path class="b" d="M840.4,98.07c14.64,2.24,27.69,7.07,37.78,17.65,8.8,9.22,14.29,20.23,14.71,33.25.21,6.47.04,12.95.04,19.7h-77.37c2.13,6.91,9.77,11.79,18.51,12.17,8.64.37,16.45-1.68,23.52-6.89,1.1-.81,4.33-.42,5.36.62,7.45,7.52,14.59,15.36,22.1,23.38-6.99,8.47-16.4,13.22-26.81,15.77-19.87,4.86-39.79,4.3-58.52-4.18-17.54-7.95-29.43-21.35-32.83-41.11-2.69-15.61-.8-30.45,8.14-43.72,10.16-15.08,24.78-23.49,42.7-25.78,7.34-.94,14.83-.73,22.68-.86M842.35,134.78c-5.72-5.06-12.38-5.14-18.89-2.6-5.21,2.03-8.51,6.37-9.64,12.43h35.52c-2.43-3.51-4.44-6.41-6.99-9.83Z"/>
  <path class="b" d="M631.92,109.84c-1.29-3.49-2.51-6.59-3.82-9.93h49.31c7.26,19.29,14.54,38.62,22.35,59.38,4.41-10.84,8.31-20.32,12.13-29.84,3.57-8.88,6.98-17.83,10.66-26.66.52-1.24,2.19-2.81,3.35-2.83,14.26-.19,28.52-.13,43.6-.13-3.37,8.36-6.46,15.98-9.52,23.62-11.38,28.47-22.77,56.95-34.11,85.44-1.29,3.24-2.76,5.19-6.99,5.08-13.64-.37-27.31-.23-40.96-.07-3.12.04-4.83-.93-5.98-3.82-9.21-23.23-18.5-46.42-27.79-69.61-4.04-10.09-8.12-20.17-12.25-30.64Z"/>
  <path class="b" d="M83.36,180.84s-.29.3-.65.7c-.51,1.38-.66,2.37-.8,3.36,0,0,.02-.04-.26-.35-.78.57-1.28,1.44-1.78,2.3,0,0,.04-.04-.27.05-.78,1.04-1.26,2-1.73,2.95,0,0,.04-.04-.26.05-.78,1.04-1.26,1.99-1.75,2.95,0,0,.04-.03-.29.1-1.41.41-2.48.9-3.57.92-3.06.06-6.36-.9-8.09,2.93-1.47,3.26-1.82,6.22,1.23,8.86.5.43.5,1.45.73,2.19,0,0,.03-.04-.31.11-.45,1.07-.55,2-.65,2.93,0,0,.03-.04.06-.05-1.22.84-2.46,1.7-3.85,2.65-6.22-3.3-9.01-9.99-7.12-17.73,1.46-5.97,7.81-11.12,14.17-10.82,3.46.16,5.38-1.15,7.1-3.9,4.99-8,10.16-15.89,15.28-23.87-1.05-1.01-2.23-2.15-3.63-3.51-9.48,8.96-19.93,9-31.01,3.21-4.53-2.37-8.93-1.85-13.18,1.54,3.5,6.14,4.42,12.26,1.15,18.72-4.11,8.12-14.25,11.25-23.24,6.94-7.64-3.66-11.02-14.15-7.46-22,3.45-7.63,9.55-10.17,17.36-10.31,1.58-.03,3.36-.76,4.68-1.69,8.82-6.19,17.92-7.1,27.7-2.28,7.81,3.86,10.75,3.1,17.02-3.7-3.96-8.17-6.09-16.9-6.1-26.18,0-3.58-5.49-5.58-9.95-3.39-2.87,1.41-5.88,3.34-7.77,5.83-6.59,8.67-15.11,10.29-25.1,8.15-1.59-.34-3.61-.27-5.03.42-10.46,5.08-23.2.84-25.73-12.05-2.11-10.7,9.37-22.62,20.07-19.81,8.67,2.28,13.99,8.11,13.65,17.16-.17,4.52,2.5,6.32,6.77,4.08,3.55-1.87,6.91-4.55,9.59-7.55,5.85-6.55,12.64-9.15,21.27-7.05,3.11.76,7.14,2.49,6.69-3.84-8.85-5.79-17.95-11.75-27.04-17.71-5.98,3.74-11.97,3.77-18.13.36-5.06-2.8-8.56-11.14-7.15-17.56,1.26-5.75,8.23-11.83,13.86-12.11,11.16-.54,17.52,5.46,18.18,16.9.07,1.18.86,2.72,1.81,3.38,6.96,4.83,13.96,9.59,21.13,14.09,2.06,1.29,4.88,4.38,6.99-.47-7.69-9.15-9.58-18.85-3.14-29.7,2.82-4.75,2.7-9.84-1.62-14.34-5.4,3.19-10.98,4.27-16.91,1.87-7.57-3.06-12.18-12.24-10.12-20.22,2.17-8.39,10.06-13.41,19.63-12.5,7.26.69,13.96,7.9,14.06,15.78.05,3.8,1.11,6.81,3.2,9.96,5.33,8.04,5.42,16.48.97,25.09-4.01,7.77-3.14,11.26,2.84,16.32,8.27-1.82,15.82-3.55,23.4-5.12,2.54-.53,5.84,1.2,7.03-2.8,1.19-3.98,1.42-7.85-1.69-11.06-2.39-2.47-5.16-4.57-7.58-7.02-6.14-6.23-5.36-14.04-4.82-21.81.13-1.83.38-3.96-.38-5.49-4.9-9.95-.82-23.04,12-25.36,6.53-1.18,11.42.91,15.78,5.58,4.07,4.37,5.37,9.37,3.78,14.95-2.68,9.41-7.1,12.79-17.03,12.9-4.14.05-5.22,2.61-4.07,5.34,1.53,3.65,3.63,7.74,6.71,9.91,7.02,4.93,11.17,17.22,7.89,24.35-2.09,4.53,1.31,4.26,4.08,5.18,5.59-8.65,11.32-17.33,16.79-26.18.73-1.18.07-3.18.13-4.8.2-4.93-.94-10.49.95-14.67,3.49-7.71,14.62-11.06,22.74-4.91-.53,1.03-1.08,2.1-1.66,3.53-.04.35.01.3-.28.38-.78,1.03-1.26,1.99-1.74,2.94,0,0,.04-.03-.35-.03-1.04,0-1.73.11-2.35-.04-6.07-1.47-10.34,2.22-9.15,8.25.41,2.05,1.87,3.89,2.85,5.82,0,0,.03-.04-.27.05-.78,1.04-1.26,2-1.73,2.95,0,0,.04-.04-.27.05-.78,1.04-1.26,2-1.73,2.95,0,0,.04-.04-.26.05-.78,1.04-1.26,1.99-1.75,2.95,0,0,.04-.03-.25.05-.78,1.04-1.26,1.99-1.75,2.95,0,0,.04-.03-.27.07-6.76,10.05-13.2,20-19.64,29.93-19.28-12.19-41.04-4.44-50.39,8.59-11.24,15.67-8.07,39.3,7.47,50.33,2.76,1.96,2.59,3.18.86,5.73-5.67,8.33-11.04,16.87-16.52,25.33M43.8,62.22c-3.79-1.03-6.57.57-7.82,3.96-.67,1.83-.66,4.47.19,6.17,1.37,2.76,4.33,4.73,7.35,3.28,2.2-1.06,4.39-3.47,5.21-5.77,1.23-3.43-1.12-5.81-4.93-7.64M25.62,173.77c4.27,1.64,7.49.39,8.65-3.85.93-3.42-1.17-5.77-4.36-5.94-1.95-.1-5.09,1.07-5.73,2.53-.8,1.81.43,4.52,1.45,7.26M78.83,28.46c-.46-.86-.71-2.03-1.42-2.51-1.79-1.19-4.09-3.18-5.62-2.77-1.9.51-4.37,3.04-4.51,4.85-.14,1.83,1.85,4.59,3.66,5.64,4.56,2.63,6-1.61,7.89-5.21M131.24,12.7c-2.39.16-5.13-.31-7.06.72-1.21.64-2.04,3.78-1.58,5.39.96,3.37,3.73,4.87,7.27,3.53,3.47-1.31,4.1-4.6,1.37-9.64M15.77,119.77c4.89-.55,8.03-3.3,7.04-6.62-1.01-3.38-3.7-5.03-7.19-4.2-1.36.32-3.1,1.62-3.51,2.85-1.02,3.08.27,5.73,3.66,7.97Z"/>
  <path class="b" d="M420.92,159.83v53.7h-47.75V60.22h47.75v99.61Z"/>
  <path class="b" d="M439.92,132.83v-32.7h47.75v113.32h-47.75v-80.61Z"/>
  <path class="b" d="M475.08,44.45c10.9,3.12,18.48,12.49,17.8,22.28-.93,13.4-9.61,21.91-20.48,24.17-8.13,1.69-15.93,1.14-23.49-2.09-10.24-4.38-14.78-13.52-13.84-23.17,1.02-10.48,5.15-16.65,16.49-20.79,7.64-2.79,15.41-2.48,23.52-.39Z"/>
  <path class="b" d="M166.23,55.13c.11-1.23.59-2.19,1.38-3.25-.13,1.1-.57,2.31-1.38,3.25Z"/>
  <path class="b" d="M168.23,52.13c.11-1.23.59-2.19,1.38-3.25-.13,1.1-.57,2.31-1.38,3.25Z"/>
  <path class="b" d="M78.23,190.13c.11-1.23.59-2.19,1.38-3.25-.13,1.1-.57,2.31-1.38,3.25Z"/>
  <path class="b" d="M162.22,61.13c.12-1.23.61-2.18,1.4-3.25-.14,1.1-.59,2.31-1.4,3.25Z"/>
  <path class="b" d="M164.22,58.13c.12-1.23.61-2.18,1.4-3.25-.14,1.1-.59,2.31-1.4,3.25Z"/>
  <path class="b" d="M80.17,187.14c.19-1.15.69-2.02,1.49-2.61-.19,1.15-.69,2.02-1.49,2.61Z"/>
  <path class="b" d="M179.22,35.13c.12-1.23.61-2.18,1.4-3.25-.14,1.1-.59,2.31-1.4,3.25Z"/>
  <path class="b" d="M76.22,193.13c.12-1.23.61-2.18,1.4-3.25-.14,1.1-.59,2.31-1.4,3.25Z"/>
  <path class="b" d="M82.3,184.67c-.25-.77-.1-1.76.33-3.07.21.73.14,1.79-.33,3.07Z"/>
  <path class="b" d="M65.26,210.72c-.25-.76-.15-1.68.31-2.78.25.76.15,1.68-.31,2.78Z"/>
  <path class="b" d="M109.92,121.8c-.26.66-.45.93-.62,1.21-1.65,2.6-3.29,5.21-4.94,7.81-3.63-2.33-7.4-4.49-10.76-7.16-.51-.4.41-3.53,1.45-4.74,1.55-1.81,4.14-2.74,5.66-4.57,2.59-3.1,8.18-3.75,6.84-10.3-.76-3.75,4.5-7.67,7.79-7.15,3.92.62,7.12,2.33,7.59,6.93.48,4.65-1.59,8.14-6.41,8.86-5.48.82-4.19,5.97-6.59,9.11Z"/>
</svg>