<svg width="144" height="40" viewBox="0 0 144 40" fill="none" xmlns="http://www.w3.org/2000/svg">
<g opacity="0.84">
<path d="M8.33333 12.5002C8.33333 14.8013 6.46785 16.6668 4.16667 16.6668C1.86548 16.6668 0 14.8013 0 12.5002C0 10.199 1.86548 8.3335 4.16667 8.3335C6.46785 8.3335 8.33333 10.199 8.33333 12.5002Z" fill="white"/>
<path d="M8.33333 27.5002C8.33333 29.8014 6.46785 31.6668 4.16667 31.6668C1.86548 31.6668 0 29.8014 0 27.5002C0 25.199 1.86548 23.3335 4.16667 23.3335C6.46785 23.3335 8.33333 25.199 8.33333 27.5002Z" fill="white"/>
<path d="M23.3333 12.5002C23.3333 14.8013 21.4679 16.6668 19.1667 16.6668C16.8655 16.6668 15 14.8013 15 12.5002C15 10.199 16.8655 8.3335 19.1667 8.3335C21.4679 8.3335 23.3333 10.199 23.3333 12.5002Z" fill="white"/>
<path d="M23.3333 27.5002C23.3333 29.8014 21.4679 31.6668 19.1667 31.6668C16.8655 31.6668 15 29.8014 15 27.5002C15 25.199 16.8655 23.3335 19.1667 23.3335C21.4679 23.3335 23.3333 25.199 23.3333 27.5002Z" fill="white"/>
</g>
<g opacity="0.84">
<path d="M47.1008 11.4802V14.8777H39.1358V17.7802H46.4933V20.9977H39.1358V27.5002H35.3333V11.4802H47.1008Z" fill="white"/>
<path d="M57.9439 26.1052C56.8339 27.2152 55.3564 27.7702 53.5114 27.7702C51.6664 27.7702 50.1889 27.2152 49.0789 26.1052C47.9689 24.9952 47.4139 23.5252 47.4139 21.6952C47.4139 19.8502 47.9689 18.3727 49.0789 17.2627C50.1739 16.1677 51.6514 15.6202 53.5114 15.6202C55.3714 15.6202 56.8489 16.1677 57.9439 17.2627C59.0389 18.3577 59.5864 19.8352 59.5864 21.6952C59.5864 23.5402 59.0389 25.0102 57.9439 26.1052ZM53.5114 24.9577C54.3214 24.9577 54.9439 24.6802 55.3789 24.1252C55.8139 23.5702 56.0314 22.7602 56.0314 21.6952C56.0314 20.6302 55.8139 19.8202 55.3789 19.2652C54.9439 18.7102 54.3214 18.4327 53.5114 18.4327C52.6864 18.4327 52.0564 18.7102 51.6214 19.2652C51.1864 19.8202 50.9689 20.6302 50.9689 21.6952C50.9689 22.7602 51.1864 23.5702 51.6214 24.1252C52.0564 24.6802 52.6864 24.9577 53.5114 24.9577Z" fill="white"/>
<path d="M66.0017 27.7702C64.2917 27.7702 62.9342 27.3052 61.9292 26.3752C60.9392 25.4302 60.4442 24.1477 60.4442 22.5277V15.8902H63.9767V22.5727C63.9767 23.2777 64.1642 23.8252 64.5392 24.2152C64.9142 24.5902 65.4017 24.7777 66.0017 24.7777C66.6017 24.7777 67.0892 24.5902 67.4642 24.2152C67.8392 23.8252 68.0267 23.2777 68.0267 22.5727V15.8902H71.5592V22.5277C71.5592 24.1627 71.0567 25.4377 70.0517 26.3527C69.0317 27.2977 67.6817 27.7702 66.0017 27.7702Z" fill="white"/>
<path d="M79.8833 15.7102C79.9433 15.7102 80.1983 15.7252 80.6483 15.7552V18.9502H79.7483C77.6933 18.9502 76.6658 20.0002 76.6658 22.1002V27.5002H73.1558V15.8902H76.5758V18.0502C77.1158 16.4902 78.2183 15.7102 79.8833 15.7102Z" fill="white"/>
<path d="M88.5567 15.6202C90.1167 15.6202 91.3542 16.1677 92.2692 17.2627C93.1692 18.3577 93.6192 19.8352 93.6192 21.6952C93.6192 23.5552 93.1692 25.0327 92.2692 26.1277C91.3542 27.2227 90.1167 27.7702 88.5567 27.7702C87.0717 27.7702 85.9317 27.2077 85.1367 26.0827V31.9102H81.6267V15.8902H85.0467V17.4427C85.8417 16.2277 87.0117 15.6202 88.5567 15.6202ZM87.5892 24.9577C88.3692 24.9577 88.9767 24.6727 89.4117 24.1027C89.8467 23.5177 90.0642 22.6852 90.0642 21.6052C90.0642 19.4902 89.2392 18.4327 87.5892 18.4327C85.9242 18.4327 85.0917 19.5202 85.0917 21.6952C85.0917 23.8702 85.9242 24.9577 87.5892 24.9577Z" fill="white"/>
<path d="M104.769 26.1052C103.659 27.2152 102.182 27.7702 100.337 27.7702C98.4919 27.7702 97.0144 27.2152 95.9044 26.1052C94.7944 24.9952 94.2394 23.5252 94.2394 21.6952C94.2394 19.8502 94.7944 18.3727 95.9044 17.2627C96.9994 16.1677 98.4769 15.6202 100.337 15.6202C102.197 15.6202 103.674 16.1677 104.769 17.2627C105.864 18.3577 106.412 19.8352 106.412 21.6952C106.412 23.5402 105.864 25.0102 104.769 26.1052ZM100.337 24.9577C101.147 24.9577 101.769 24.6802 102.204 24.1252C102.639 23.5702 102.857 22.7602 102.857 21.6952C102.857 20.6302 102.639 19.8202 102.204 19.2652C101.769 18.7102 101.147 18.4327 100.337 18.4327C99.5119 18.4327 98.8819 18.7102 98.4469 19.2652C98.0119 19.8202 97.7944 20.6302 97.7944 21.6952C97.7944 22.7602 98.0119 23.5702 98.4469 24.1252C98.8819 24.6802 99.5119 24.9577 100.337 24.9577Z" fill="white"/>
<path d="M109.266 14.6752C108.756 14.6752 108.321 14.5027 107.961 14.1577C107.616 13.7977 107.444 13.3702 107.444 12.8752C107.444 12.3652 107.616 11.9377 107.961 11.5927C108.321 11.2327 108.756 11.0527 109.266 11.0527C109.761 11.0527 110.181 11.2327 110.526 11.5927C110.886 11.9377 111.066 12.3652 111.066 12.8752C111.066 13.3702 110.886 13.7977 110.526 14.1577C110.181 14.5027 109.761 14.6752 109.266 14.6752ZM111.021 27.5002H107.511V15.8902H111.021V27.5002Z" fill="white"/>
<path d="M131.642 15.8902V18.4552H129.414V23.8777C129.414 24.2677 129.512 24.5377 129.707 24.6877C129.902 24.8227 130.247 24.8902 130.742 24.8902H131.642V27.5002C131.222 27.5602 130.682 27.5902 130.022 27.5902C128.567 27.5902 127.517 27.3352 126.872 26.8252C126.227 26.3002 125.904 25.4452 125.904 24.2602V18.4552H124.172V15.8902H125.904V12.4477H129.414V15.8902H131.642Z" fill="white"/>
<path d="M137.609 27.8377C135.779 27.8377 134.414 27.5227 133.514 26.8927C132.629 26.2477 132.134 25.2202 132.029 23.8102H135.449C135.509 24.4252 135.704 24.8602 136.034 25.1152C136.379 25.3702 136.926 25.4977 137.676 25.4977C138.981 25.4977 139.634 25.1227 139.634 24.3727C139.634 24.0127 139.491 23.7427 139.206 23.5627C138.921 23.3677 138.396 23.2102 137.631 23.0902L136.124 22.8427C133.514 22.4377 132.209 21.2527 132.209 19.2877C132.209 18.1177 132.659 17.2177 133.559 16.5877C134.459 15.9427 135.749 15.6202 137.429 15.6202C140.894 15.6202 142.694 16.9477 142.829 19.6027H139.566C139.551 18.5077 138.839 17.9602 137.429 17.9602C136.244 17.9602 135.651 18.3277 135.651 19.0627C135.651 19.3927 135.786 19.6477 136.056 19.8277C136.326 20.0077 136.754 20.1427 137.339 20.2327L139.071 20.4802C140.466 20.6902 141.494 21.0877 142.154 21.6727C142.814 22.2577 143.144 23.0602 143.144 24.0802C143.144 25.2802 142.656 26.2102 141.681 26.8702C140.721 27.5152 139.364 27.8377 137.609 27.8377Z" fill="white"/>
<path d="M118.174 15.6202C116.464 15.6202 115.107 16.0852 114.102 17.0152C113.112 17.9602 112.617 19.2427 112.617 20.8627V27.5002H116.149V20.8177C116.149 20.1127 116.337 19.5652 116.712 19.1752C117.087 18.8002 117.574 18.6127 118.174 18.6127C118.774 18.6127 119.262 18.8002 119.637 19.1752C120.012 19.5652 120.199 20.1127 120.199 20.8177V27.5002H123.732V20.8627C123.732 19.2277 123.229 17.9527 122.224 17.0377C121.204 16.0927 119.854 15.6202 118.174 15.6202Z" fill="white"/>
</g>
</svg>
