<?xml version="1.0" encoding="UTF-8"?>
<svg id="a" xmlns="http://www.w3.org/2000/svg" viewBox="0 0 894.29 304.36">
  <defs>
    <style>
      .b {
        fill: #003;
      }
    </style>
  </defs>
  <path class="b" d="M193.64,79.28c8.88-3,15.91,2.17,22.59,6.17,15.77,9.44,23.36,24.09,22.05,42.37-1.21,17.06-8.41,30.98-24.81,38.67-2.22,1.04-4.36,2.26-7.42,3.85,2.91,1.97,5.04,3.66,7.37,4.95,19.46,10.8,24.33,40.02,11.62,57.32-8.15,11.09-19.66,17.21-32.91,19.73-8.39,1.6-16.99,2.73-25.51,2.86-26.16.36-52.32.14-78.48.12-5.09,0-6.02-.99-4.84-5.34,0-.35-.02-.3.32-.47.44-1.05.53-1.92.62-2.79,0,.02-.04.06.25.32,2.01-2.09,3.89-4.36,5.4-6.85,1.49-2.47,2.61-5.17,3.87-7.75,0,.02-.05.06.3.31.77-.89,1.2-2.04,1.62-3.17,0,.02-.05.06.3.31.77-.89,1.2-2.04,1.61-3.17,0,.02-.05.06.24.32.76-.56,1.24-1.38,1.69-2.19-.02.02-.04.06.33-.15.45-1.22.51-2.22.66-3.29.08-.07.35-.35.69,0,1.77-.2,3.18-1.17,4.64-1.24,9.44-.45,18.89-.85,28.35-.98,10.78-.16,21.6.48,32.34-.2,8.82-.55,14.98-4.49,17.17-13.03,1.84-7.14-.53-15-7.52-18.83-4.18-2.28-9.26-3.65-14.03-3.97-9-.61-18.07-.11-27.11-.23-1.6-.02-4.22-.39-4.54-1.28-.53-1.45-.05-3.74.84-5.16,5.12-8.13,10.37-16.18,15.89-24.04,1.03-1.46,3.46-2.47,5.35-2.68,7.43-.89,14.99-.94,22.37-2.13,7.36-1.19,14.21-8.59,14.95-14.98.72-6.27-1.72-14.7-10.04-18.3-3.56-1.54-4.56-4.07-4.22-7.55-.02.02-.06.06.29.31.77-.89,1.2-2.04,1.62-3.17-.02.02-.06.06.29.31.77-.89,1.2-2.04,1.62-3.17,0,.02-.05.06.3.31.77-.89,1.2-2.04,1.61-3.17,0,.02-.05.06.3.31.77-.89,1.2-2.04,1.61-3.17,0,.02-.05.06.25.32,2.25-2.57,4.33-5.35,6.12-8.3.99-1.64,1.49-3.57,2.2-5.35-.02.02-.06.05.29.31.77-.89,1.2-2.04,1.61-3.17-.02.03-.07.08-.07.08h0Z"/>
  <path class="b" d="M302.23,142.06c17.82-.19,33.51,4.53,45.91,17.06,8.53,8.61,13.6,19.24,14.01,31.63.2,6.16.04,12.33.04,18.74h-73.65c2.03,6.58,9.29,11.22,17.62,11.58,8.21.36,15.64-1.62,22.4-6.53,1.08-.78,4.32-.19,5.42.91,7,7.03,13.68,14.38,20.72,21.91-6.64,8.07-15.61,12.58-25.51,15.01-18.91,4.64-37.87,4.09-55.69-3.97-16.7-7.56-28.04-20.29-31.27-39.11-2.54-14.84-.79-28.97,7.73-41.62,9.67-14.35,23.6-22.2,40.61-24.63,3.7-.53,7.47-.67,11.67-.98M306.07,173.48c-11.54-.02-17.94,4.41-18.82,13.1h32.63c-2.21-6.74-6.17-11.34-13.81-13.1Z"/>
  <path class="b" d="M517.14,239.44c-14.67-13.23-20.06-29.89-17.66-48.54,3-23.36,16.76-38.97,39.23-45.56,24.63-7.22,48.09-4.56,67.47,13.94,8.75,8.36,13.56,19.25,13.93,31.66.17,6.03.03,12.07.03,18.44h-74.23c2.25,4.8,5.23,8.14,9.43,9.63,10.97,3.89,21.45,2.67,30.85-4.52,2.62-2,4.25-.89,6.03,1.02,6.66,7.17,13.35,14.31,20.27,21.7-4.57,6.69-11.72,10.24-19,13.21-9.63,3.92-20.03,5.03-30.26,4.74-16.71-.47-32.53-4.54-46.1-15.73M576.43,183.4c-3.77-7.94-10.99-11.63-19.22-9.83-6.53,1.43-11.74,7.15-11.81,13.11h32.25c-.02-.38.03-.7-.07-.97-.2-.59-.48-1.15-1.16-2.3h0Z"/>
  <path class="b" d="M821.44,142.29c13.94,2.13,26.36,6.73,35.96,16.8,8.38,8.78,13.6,19.26,14,31.65.2,6.16.04,12.33.04,18.75h-73.65c2.03,6.58,9.3,11.22,17.62,11.58,8.22.35,15.66-1.6,22.39-6.56,1.05-.77,4.12-.4,5.1.59,7.09,7.16,13.89,14.62,21.04,22.25-6.65,8.06-15.61,12.58-25.52,15.01-18.91,4.63-37.87,4.09-55.7-3.98-16.7-7.57-28.01-20.32-31.25-39.13-2.56-14.86-.76-28.98,7.75-41.62,9.67-14.35,23.59-22.36,40.64-24.54,6.99-.89,14.12-.69,21.59-.82M823.29,177.23c-5.44-4.82-11.78-4.89-17.98-2.47-4.96,1.93-8.1,6.06-9.18,11.83h33.81c-2.31-3.34-4.23-6.1-6.65-9.36h0Z"/>
  <path class="b" d="M622.99,153.49c-1.23-3.32-2.39-6.27-3.64-9.45h46.94c6.91,18.36,13.84,36.76,21.27,56.52,4.2-10.32,7.91-19.34,11.55-28.4,3.4-8.45,6.64-16.97,10.15-25.38.49-1.18,2.08-2.67,3.19-2.69,13.57-.18,27.15-.12,41.5-.12-3.21,7.96-6.15,15.21-9.06,22.48-10.83,27.1-21.67,54.21-32.47,81.33-1.23,3.08-2.63,4.94-6.65,4.84-12.98-.35-26-.22-38.99-.07-2.97.04-4.6-.89-5.69-3.64-8.77-22.11-17.61-44.19-26.45-66.26-3.85-9.6-7.73-19.2-11.66-29.17h.02Z"/>
  <path class="b" d="M100.84,221.07s-.28.29-.62.67c-.49,1.31-.63,2.26-.76,3.2,0,0,.02-.04-.25-.33-.74.54-1.22,1.37-1.69,2.19,0,0,.04-.04-.26.05-.74.99-1.2,1.9-1.65,2.81,0,0,.04-.04-.25.05-.74.99-1.2,1.89-1.67,2.81,0,0,.04-.03-.28.1-1.34.39-2.36.86-3.4.88-2.91.06-6.05-.86-7.7,2.79-1.4,3.1-1.73,5.92,1.17,8.43.48.41.48,1.38.69,2.08,0,0,.03-.04-.3.1-.43,1.02-.52,1.9-.62,2.79,0,0,.03-.04.06-.05-1.16.8-2.34,1.62-3.66,2.52-5.92-3.14-8.58-9.51-6.78-16.88,1.39-5.68,7.43-10.58,13.49-10.3,3.29.15,5.12-1.09,6.76-3.71,4.75-7.61,9.67-15.13,14.54-22.72-1-.96-2.12-2.05-3.46-3.34-9.02,8.53-18.97,8.57-29.52,3.06-4.31-2.26-8.5-1.76-12.55,1.47,3.33,5.84,4.21,11.67,1.09,17.82-3.91,7.73-13.56,10.71-22.12,6.61-7.27-3.48-10.49-13.47-7.1-20.94,3.28-7.26,9.09-9.68,16.52-9.81,1.5-.03,3.2-.72,4.45-1.61,8.4-5.89,17.06-6.76,26.37-2.17,7.43,3.67,10.23,2.95,16.2-3.52-3.77-7.78-5.8-16.09-5.81-24.92,0-3.41-5.23-5.31-9.47-3.23-2.73,1.34-5.6,3.18-7.4,5.55-6.27,8.25-14.38,9.79-23.89,7.76-1.51-.32-3.44-.26-4.79.4-9.96,4.84-22.08.8-24.49-11.47-2.01-10.18,8.92-21.53,19.1-18.86,8.25,2.17,13.32,7.72,12.99,16.33-.16,4.3,2.38,6.02,6.44,3.88,3.38-1.78,6.58-4.33,9.13-7.19,5.57-6.23,12.03-8.71,20.25-6.71,2.96.72,6.8,2.37,6.37-3.66-8.42-5.51-17.09-11.18-25.74-16.86-5.69,3.56-11.39,3.59-17.26.34-4.82-2.67-8.15-10.6-6.81-16.71,1.2-5.47,7.83-11.26,13.19-11.53,10.62-.51,16.68,5.2,17.3,16.09.07,1.12.82,2.59,1.72,3.22,6.62,4.6,13.29,9.13,20.11,13.41,1.96,1.23,4.65,4.17,6.65-.45-7.32-8.71-9.12-17.94-2.99-28.27,2.68-4.52,2.57-9.37-1.54-13.65-5.14,3.04-10.45,4.06-16.1,1.78-7.21-2.91-11.59-11.65-9.63-19.25,2.07-7.99,9.58-12.76,18.69-11.9,6.91.66,13.29,7.52,13.38,15.02.05,3.62,1.06,6.48,3.05,9.48,5.07,7.65,5.16,15.69.92,23.88-3.82,7.4-2.99,10.72,2.7,15.53,7.87-1.73,15.06-3.38,22.27-4.87,2.42-.5,5.56,1.14,6.69-2.67,1.13-3.79,1.35-7.47-1.61-10.53-2.27-2.35-4.91-4.35-7.22-6.68-5.84-5.93-5.1-13.36-4.59-20.76.12-1.74.36-3.77-.36-5.23-4.66-9.47-.78-21.93,11.42-24.14,6.22-1.12,10.87.87,15.02,5.31,3.87,4.16,5.11,8.92,3.6,14.23-2.55,8.96-6.76,12.17-16.21,12.28-3.94.05-4.97,2.48-3.87,5.08,1.46,3.47,3.46,7.37,6.39,9.43,6.68,4.69,10.63,16.39,7.51,23.18-1.99,4.31,1.25,4.05,3.88,4.93,5.32-8.23,10.78-16.5,15.98-24.92.69-1.12.07-3.03.12-4.57.19-4.69-.89-9.99.9-13.96,3.32-7.34,13.92-10.53,21.65-4.67-.5.98-1.03,2-1.58,3.36-.04.33,0,.29-.27.36-.74.98-1.2,1.89-1.66,2.8,0,0,.04-.03-.33-.03-.99,0-1.65.1-2.24-.04-5.78-1.4-9.84,2.11-8.71,7.85.39,1.95,1.78,3.7,2.71,5.54,0,0,.03-.04-.26.05-.74.99-1.2,1.9-1.65,2.81,0,0,.04-.04-.26.05-.74.99-1.2,1.9-1.65,2.81,0,0,.04-.04-.25.05-.74.99-1.2,1.89-1.67,2.81,0,0,.04-.03-.24.05-.74.99-1.2,1.89-1.67,2.81,0,0,.04-.03-.26.07-6.43,9.57-12.56,19.04-18.69,28.49-18.35-11.6-39.06-4.23-47.96,8.18-10.7,14.92-7.68,37.41,7.11,47.91,2.63,1.87,2.47,3.03.82,5.45-5.4,7.93-10.51,16.06-15.72,24.11M63.19,108.16c-3.61-.98-6.25.54-7.44,3.77-.64,1.74-.63,4.25.18,5.87,1.3,2.63,4.12,4.5,7,3.12,2.09-1.01,4.18-3.3,4.96-5.49,1.17-3.26-1.07-5.53-4.69-7.27M45.88,214.34c4.06,1.56,7.13.37,8.23-3.66.89-3.26-1.11-5.49-4.15-5.65-1.86-.1-4.84,1.02-5.45,2.41-.76,1.72.41,4.3,1.38,6.91M96.53,76.03c-.44-.82-.68-1.93-1.35-2.39-1.7-1.13-3.89-3.03-5.35-2.64-1.81.49-4.16,2.89-4.29,4.62-.13,1.74,1.76,4.37,3.48,5.37,4.34,2.5,5.71-1.53,7.51-4.96M146.42,61.03c-2.27.15-4.88-.3-6.72.69-1.15.61-1.94,3.6-1.5,5.13.91,3.21,3.55,4.64,6.92,3.36,3.3-1.25,3.9-4.38,1.3-9.18M36.51,162.94c4.65-.52,7.64-3.14,6.7-6.3-.96-3.22-3.52-4.79-6.84-4-1.29.3-2.95,1.54-3.34,2.71-.97,2.93.26,5.45,3.48,7.59Z"/>
  <path class="b" d="M422.15,201.08v51.11h-45.45V106.26h45.45v94.81Z"/>
  <path class="b" d="M440.24,175.38v-31.13h45.45v107.86h-45.45v-76.73h0Z"/>
  <path class="b" d="M473.7,91.25c10.38,2.97,17.59,11.89,16.94,21.21-.89,12.75-9.15,20.86-19.49,23.01-7.74,1.61-15.16,1.09-22.36-1.99-9.75-4.17-14.07-12.87-13.17-22.05.97-9.98,4.9-15.85,15.7-19.79,7.27-2.66,14.67-2.36,22.39-.37h0Z"/>
  <path class="b" d="M179.72,101.42c.1-1.17.56-2.08,1.31-3.09-.12,1.05-.54,2.2-1.31,3.09Z"/>
  <path class="b" d="M181.63,98.56c.1-1.17.56-2.08,1.31-3.09-.12,1.05-.54,2.2-1.31,3.09Z"/>
  <path class="b" d="M95.96,229.92c.1-1.17.56-2.08,1.31-3.09-.12,1.05-.54,2.2-1.31,3.09Z"/>
  <path class="b" d="M175.91,107.13c.11-1.17.58-2.08,1.33-3.09-.13,1.05-.56,2.2-1.33,3.09Z"/>
  <path class="b" d="M177.81,104.27c.11-1.17.58-2.08,1.33-3.09-.13,1.05-.56,2.2-1.33,3.09Z"/>
  <path class="b" d="M97.8,227.07c.18-1.09.66-1.92,1.42-2.48-.18,1.09-.66,1.92-1.42,2.48Z"/>
  <path class="b" d="M192.09,82.38c.11-1.17.58-2.08,1.33-3.09-.13,1.05-.56,2.2-1.33,3.09Z"/>
  <path class="b" d="M94.05,232.77c.11-1.17.58-2.08,1.33-3.09-.13,1.05-.56,2.2-1.33,3.09Z"/>
  <path class="b" d="M99.83,224.72c-.24-.73-.1-1.68.31-2.92.2.69.13,1.7-.31,2.92Z"/>
  <path class="b" d="M83.61,249.52c-.24-.72-.14-1.6.3-2.65.24.72.14,1.6-.3,2.65Z"/>
  <path class="b" d="M126.12,164.88c-.25.63-.43.89-.59,1.15-1.57,2.47-3.13,4.96-4.7,7.43-3.46-2.22-7.04-4.27-10.24-6.82-.49-.38.39-3.36,1.38-4.51,1.48-1.72,3.94-2.61,5.39-4.35,2.47-2.95,7.79-3.57,6.51-9.8-.72-3.57,4.28-7.3,7.41-6.81,3.73.59,6.78,2.22,7.22,6.6.46,4.43-1.51,7.75-6.1,8.43-5.22.78-3.99,5.68-6.27,8.67h0Z"/>
</svg>