<?xml version="1.0" encoding="UTF-8"?>
<svg id="a" xmlns="http://www.w3.org/2000/svg" version="1.1" viewBox="0 0 894.3 304.4">
  <!-- Generator: Adobe Illustrator 29.1.0, SVG Export Plug-In . SVG Version: 2.1.0 Build 142)  -->
  <defs>
    <style>
      .st0 {
        fill: #003;
      }
    </style>
  </defs>
  <path class="st0" d="M193.6,79.3c8.9-3,15.9,2.2,22.6,6.2,15.8,9.4,23.4,24.1,22.1,42.4-1.2,17.1-8.4,31-24.8,38.7-2.2,1-4.4,2.3-7.4,3.8,2.9,2,5,3.7,7.4,4.9,19.5,10.8,24.3,40,11.6,57.3-8.1,11.1-19.7,17.2-32.9,19.7-8.4,1.6-17,2.7-25.5,2.9-26.2.4-52.3.1-78.5.1-5.1,0-6-1-4.8-5.3,0-.4,0-.3.3-.5.4-1,.5-1.9.6-2.8,0,0,0,0,.2.3,2-2.1,3.9-4.4,5.4-6.9,1.5-2.5,2.6-5.2,3.9-7.7,0,0,0,0,.3.3.8-.9,1.2-2,1.6-3.2,0,0,0,0,.3.3.8-.9,1.2-2,1.6-3.2,0,0,0,0,.2.3.8-.6,1.2-1.4,1.7-2.2,0,0,0,0,.3-.2.4-1.2.5-2.2.7-3.3,0,0,.4-.4.7,0,1.8-.2,3.2-1.2,4.6-1.2,9.4-.4,18.9-.8,28.3-1,10.8-.2,21.6.5,32.3-.2,8.8-.6,15-4.5,17.2-13,1.8-7.1-.5-15-7.5-18.8-4.2-2.3-9.3-3.6-14-4-9-.6-18.1-.1-27.1-.2-1.6,0-4.2-.4-4.5-1.3-.5-1.4,0-3.7.8-5.2,5.1-8.1,10.4-16.2,15.9-24,1-1.5,3.5-2.5,5.3-2.7,7.4-.9,15-.9,22.4-2.1,7.4-1.2,14.2-8.6,15-15,.7-6.3-1.7-14.7-10-18.3-3.6-1.5-4.6-4.1-4.2-7.5,0,0,0,0,.3.3.8-.9,1.2-2,1.6-3.2,0,0,0,0,.3.3.8-.9,1.2-2,1.6-3.2,0,0,0,0,.3.3.8-.9,1.2-2,1.6-3.2,0,0,0,0,.3.3.8-.9,1.2-2,1.6-3.2,0,0,0,0,.2.3,2.2-2.6,4.3-5.3,6.1-8.3,1-1.6,1.5-3.6,2.2-5.3,0,0,0,0,.3.3.8-.9,1.2-2,1.6-3.2,0,0,0,0,0,0h0Z"/>
  <path class="st0" d="M302.2,142.1c17.8-.2,33.5,4.5,45.9,17.1,8.5,8.6,13.6,19.2,14,31.6.2,6.2,0,12.3,0,18.7h-73.6c2,6.6,9.3,11.2,17.6,11.6,8.2.4,15.6-1.6,22.4-6.5,1.1-.8,4.3-.2,5.4.9,7,7,13.7,14.4,20.7,21.9-6.6,8.1-15.6,12.6-25.5,15-18.9,4.6-37.9,4.1-55.7-4-16.7-7.6-28-20.3-31.3-39.1-2.5-14.8-.8-29,7.7-41.6,9.7-14.4,23.6-22.2,40.6-24.6,3.7-.5,7.5-.7,11.7-1M306.1,173.5c-11.5,0-17.9,4.4-18.8,13.1h32.6c-2.2-6.7-6.2-11.3-13.8-13.1Z"/>
  <path class="st0" d="M517.1,239.4c-14.7-13.2-20.1-29.9-17.7-48.5,3-23.4,16.8-39,39.2-45.6,24.6-7.2,48.1-4.6,67.5,13.9,8.7,8.4,13.6,19.2,13.9,31.7.2,6,0,12.1,0,18.4h-74.2c2.2,4.8,5.2,8.1,9.4,9.6,11,3.9,21.4,2.7,30.8-4.5,2.6-2,4.3-.9,6,1,6.7,7.2,13.4,14.3,20.3,21.7-4.6,6.7-11.7,10.2-19,13.2-9.6,3.9-20,5-30.3,4.7-16.7-.5-32.5-4.5-46.1-15.7M576.4,183.4c-3.8-7.9-11-11.6-19.2-9.8-6.5,1.4-11.7,7.1-11.8,13.1h32.2c0-.4,0-.7,0-1-.2-.6-.5-1.2-1.2-2.3h0Z"/>
  <path class="st0" d="M821.4,142.3c13.9,2.1,26.4,6.7,36,16.8,8.4,8.8,13.6,19.3,14,31.6.2,6.2,0,12.3,0,18.8h-73.6c2,6.6,9.3,11.2,17.6,11.6,8.2.4,15.7-1.6,22.4-6.6,1-.8,4.1-.4,5.1.6,7.1,7.2,13.9,14.6,21,22.3-6.7,8.1-15.6,12.6-25.5,15-18.9,4.6-37.9,4.1-55.7-4-16.7-7.6-28-20.3-31.2-39.1-2.6-14.9-.8-29,7.7-41.6,9.7-14.4,23.6-22.4,40.6-24.5,7-.9,14.1-.7,21.6-.8M823.3,177.2c-5.4-4.8-11.8-4.9-18-2.5-5,1.9-8.1,6.1-9.2,11.8h33.8c-2.3-3.3-4.2-6.1-6.7-9.4h0Z"/>
  <path class="st0" d="M623,153.5c-1.2-3.3-2.4-6.3-3.6-9.5h46.9c6.9,18.4,13.8,36.8,21.3,56.5,4.2-10.3,7.9-19.3,11.5-28.4,3.4-8.5,6.6-17,10.1-25.4.5-1.2,2.1-2.7,3.2-2.7,13.6-.2,27.1-.1,41.5-.1-3.2,8-6.1,15.2-9.1,22.5-10.8,27.1-21.7,54.2-32.5,81.3-1.2,3.1-2.6,4.9-6.7,4.8-13-.4-26-.2-39,0-3,0-4.6-.9-5.7-3.6-8.8-22.1-17.6-44.2-26.5-66.3-3.8-9.6-7.7-19.2-11.7-29.2h0Z"/>
  <path class="st0" d="M100.8,221.1s-.3.3-.6.7c-.5,1.3-.6,2.3-.8,3.2,0,0,0,0-.2-.3-.7.5-1.2,1.4-1.7,2.2,0,0,0,0-.3,0-.7,1-1.2,1.9-1.6,2.8,0,0,0,0-.2,0-.7,1-1.2,1.9-1.7,2.8,0,0,0,0-.3,0-1.3.4-2.4.9-3.4.9-2.9,0-6.1-.9-7.7,2.8-1.4,3.1-1.7,5.9,1.2,8.4.5.4.5,1.4.7,2.1,0,0,0,0-.3.1-.4,1-.5,1.9-.6,2.8,0,0,0,0,0,0-1.2.8-2.3,1.6-3.7,2.5-5.9-3.1-8.6-9.5-6.8-16.9,1.4-5.7,7.4-10.6,13.5-10.3,3.3.2,5.1-1.1,6.8-3.7,4.7-7.6,9.7-15.1,14.5-22.7-1-1-2.1-2-3.5-3.3-9,8.5-19,8.6-29.5,3.1-4.3-2.3-8.5-1.8-12.5,1.5,3.3,5.8,4.2,11.7,1.1,17.8-3.9,7.7-13.6,10.7-22.1,6.6-7.3-3.5-10.5-13.5-7.1-20.9,3.3-7.3,9.1-9.7,16.5-9.8,1.5,0,3.2-.7,4.5-1.6,8.4-5.9,17.1-6.8,26.4-2.2,7.4,3.7,10.2,3,16.2-3.5-3.8-7.8-5.8-16.1-5.8-24.9,0-3.4-5.2-5.3-9.5-3.2-2.7,1.3-5.6,3.2-7.4,5.5-6.3,8.3-14.4,9.8-23.9,7.8-1.5-.3-3.4-.3-4.8.4-10,4.8-22.1.8-24.5-11.5-2-10.2,8.9-21.5,19.1-18.9,8.3,2.2,13.3,7.7,13,16.3-.2,4.3,2.4,6,6.4,3.9,3.4-1.8,6.6-4.3,9.1-7.2,5.6-6.2,12-8.7,20.2-6.7,3,.7,6.8,2.4,6.4-3.7-8.4-5.5-17.1-11.2-25.7-16.9-5.7,3.6-11.4,3.6-17.3.3-4.8-2.7-8.1-10.6-6.8-16.7,1.2-5.5,7.8-11.3,13.2-11.5,10.6-.5,16.7,5.2,17.3,16.1,0,1.1.8,2.6,1.7,3.2,6.6,4.6,13.3,9.1,20.1,13.4,2,1.2,4.6,4.2,6.7-.4-7.3-8.7-9.1-17.9-3-28.3,2.7-4.5,2.6-9.4-1.5-13.6-5.1,3-10.5,4.1-16.1,1.8-7.2-2.9-11.6-11.7-9.6-19.2,2.1-8,9.6-12.8,18.7-11.9,6.9.7,13.3,7.5,13.4,15,0,3.6,1.1,6.5,3,9.5,5.1,7.7,5.2,15.7.9,23.9-3.8,7.4-3,10.7,2.7,15.5,7.9-1.7,15.1-3.4,22.3-4.9,2.4-.5,5.6,1.1,6.7-2.7,1.1-3.8,1.4-7.5-1.6-10.5-2.3-2.4-4.9-4.4-7.2-6.7-5.8-5.9-5.1-13.4-4.6-20.8.1-1.7.4-3.8-.4-5.2-4.7-9.5-.8-21.9,11.4-24.1,6.2-1.1,10.9.9,15,5.3,3.9,4.2,5.1,8.9,3.6,14.2-2.6,9-6.8,12.2-16.2,12.3-3.9,0-5,2.5-3.9,5.1,1.5,3.5,3.5,7.4,6.4,9.4,6.7,4.7,10.6,16.4,7.5,23.2-2,4.3,1.2,4.1,3.9,4.9,5.3-8.2,10.8-16.5,16-24.9.7-1.1,0-3,.1-4.6.2-4.7-.9-10,.9-14,3.3-7.3,13.9-10.5,21.6-4.7-.5,1-1,2-1.6,3.4,0,.3,0,.3-.3.4-.7,1-1.2,1.9-1.7,2.8,0,0,0,0-.3,0-1,0-1.6.1-2.2,0-5.8-1.4-9.8,2.1-8.7,7.9.4,2,1.8,3.7,2.7,5.5,0,0,0,0-.3,0-.7,1-1.2,1.9-1.6,2.8,0,0,0,0-.3,0-.7,1-1.2,1.9-1.6,2.8,0,0,0,0-.2,0-.7,1-1.2,1.9-1.7,2.8,0,0,0,0-.2,0-.7,1-1.2,1.9-1.7,2.8,0,0,0,0-.3,0-6.4,9.6-12.6,19-18.7,28.5-18.4-11.6-39.1-4.2-48,8.2-10.7,14.9-7.7,37.4,7.1,47.9,2.6,1.9,2.5,3,.8,5.5-5.4,7.9-10.5,16.1-15.7,24.1M63.2,108.2c-3.6-1-6.3.5-7.4,3.8-.6,1.7-.6,4.3.2,5.9,1.3,2.6,4.1,4.5,7,3.1,2.1-1,4.2-3.3,5-5.5,1.2-3.3-1.1-5.5-4.7-7.3M45.9,214.3c4.1,1.6,7.1.4,8.2-3.7.9-3.3-1.1-5.5-4.2-5.7-1.9,0-4.8,1-5.5,2.4-.8,1.7.4,4.3,1.4,6.9M96.5,76c-.4-.8-.7-1.9-1.4-2.4-1.7-1.1-3.9-3-5.3-2.6-1.8.5-4.2,2.9-4.3,4.6-.1,1.7,1.8,4.4,3.5,5.4,4.3,2.5,5.7-1.5,7.5-5M146.4,61c-2.3.2-4.9-.3-6.7.7-1.2.6-1.9,3.6-1.5,5.1.9,3.2,3.6,4.6,6.9,3.4,3.3-1.2,3.9-4.4,1.3-9.2M36.5,162.9c4.7-.5,7.6-3.1,6.7-6.3-1-3.2-3.5-4.8-6.8-4-1.3.3-3,1.5-3.3,2.7-1,2.9.3,5.5,3.5,7.6Z"/>
  <path class="st0" d="M422.2,201.1v51.1h-45.5V106.3h45.5v94.8Z"/>
  <path class="st0" d="M440.2,175.4v-31.1h45.5v107.9h-45.5v-76.7h0Z"/>
  <path class="st0" d="M473.7,91.2c10.4,3,17.6,11.9,16.9,21.2-.9,12.8-9.1,20.9-19.5,23-7.7,1.6-15.2,1.1-22.4-2-9.7-4.2-14.1-12.9-13.2-22.1,1-10,4.9-15.8,15.7-19.8,7.3-2.7,14.7-2.4,22.4-.4h0Z"/>
  <path class="st0" d="M179.7,101.4c.1-1.2.6-2.1,1.3-3.1-.1,1-.5,2.2-1.3,3.1Z"/>
  <path class="st0" d="M181.6,98.6c.1-1.2.6-2.1,1.3-3.1-.1,1-.5,2.2-1.3,3.1Z"/>
  <path class="st0" d="M96,229.9c.1-1.2.6-2.1,1.3-3.1-.1,1-.5,2.2-1.3,3.1Z"/>
  <path class="st0" d="M175.9,107.1c.1-1.2.6-2.1,1.3-3.1-.1,1-.6,2.2-1.3,3.1Z"/>
  <path class="st0" d="M177.8,104.3c.1-1.2.6-2.1,1.3-3.1-.1,1-.6,2.2-1.3,3.1Z"/>
  <path class="st0" d="M97.8,227.1c.2-1.1.7-1.9,1.4-2.5-.2,1.1-.7,1.9-1.4,2.5Z"/>
  <path class="st0" d="M192.1,82.4c.1-1.2.6-2.1,1.3-3.1-.1,1-.6,2.2-1.3,3.1Z"/>
  <path class="st0" d="M94,232.8c.1-1.2.6-2.1,1.3-3.1-.1,1-.6,2.2-1.3,3.1Z"/>
  <path class="st0" d="M99.8,224.7c-.2-.7,0-1.7.3-2.9.2.7.1,1.7-.3,2.9Z"/>
  <path class="st0" d="M83.6,249.5c-.2-.7-.1-1.6.3-2.6.2.7.1,1.6-.3,2.6Z"/>
  <path class="st0" d="M126.1,164.9c-.2.6-.4.9-.6,1.2-1.6,2.5-3.1,5-4.7,7.4-3.5-2.2-7-4.3-10.2-6.8-.5-.4.4-3.4,1.4-4.5,1.5-1.7,3.9-2.6,5.4-4.4,2.5-3,7.8-3.6,6.5-9.8-.7-3.6,4.3-7.3,7.4-6.8,3.7.6,6.8,2.2,7.2,6.6.5,4.4-1.5,7.7-6.1,8.4-5.2.8-4,5.7-6.3,8.7h0Z"/>
</svg>